<?xml version="1.0" standalone="no"?>
<!DOCTYPE svg PUBLIC "-//W3C//DTD SVG 20010904//EN"
 "http://www.w3.org/TR/2001/REC-SVG-20010904/DTD/svg10.dtd">
<svg version="1.0" xmlns="http://www.w3.org/2000/svg"
 width="512.000000pt" height="512.000000pt" viewBox="0 0 512.000000 512.000000"
 preserveAspectRatio="xMidYMid meet">
<metadata>
Created by potrace 1.14, written by Peter Selinger 2001-2017
</metadata>
<g transform="translate(0.000000,512.000000) scale(0.100000,-0.100000)"
fill="#000000" stroke="none">
<path d="M1895 5110 c-156 -32 -307 -145 -382 -286 -26 -49 -69 -178 -103
-309 -5 -16 -19 -69 -33 -116 -23 -80 -23 -89 -10 -118 9 -17 22 -31 30 -31 9
0 13 -6 10 -14 -3 -8 -11 -34 -17 -58 -6 -24 -17 -59 -25 -79 -8 -20 -11 -39
-8 -43 4 -3 -5 -6 -20 -6 -49 0 -73 -36 -111 -165 -19 -66 -51 -175 -71 -243
-55 -190 -62 -276 -31 -397 39 -155 155 -294 299 -360 49 -23 212 -74 427
-134 36 -10 232 -67 435 -126 457 -133 471 -136 564 -134 185 4 358 101 457
255 28 44 93 213 109 284 2 8 35 123 73 255 38 132 102 353 142 490 39 138 74
257 77 265 7 17 9 25 22 93 39 209 -71 448 -258 562 -66 39 -131 61 -426 145
-121 34 -269 77 -330 95 -125 38 -225 68 -240 71 -5 1 -91 25 -189 54 -187 54
-298 69 -391 50z"/>
<path d="M1768 2515 c-2 -1 -25 -5 -53 -9 -27 -3 -158 -23 -290 -45 -132 -22
-258 -42 -280 -46 -23 -3 -52 -8 -65 -10 -14 -3 -45 -8 -70 -11 -25 -3 -52 -7
-60 -9 -8 -2 -103 -18 -210 -36 -107 -17 -208 -33 -225 -36 -48 -8 -156 -53
-204 -86 -105 -72 -193 -197 -226 -323 -15 -55 -21 -182 -11 -230 2 -12 7 -39
11 -60 40 -258 59 -353 71 -372 8 -12 28 -25 44 -29 22 -4 30 -11 31 -27 0
-11 2 -30 5 -41 2 -11 6 -40 10 -65 3 -25 7 -48 8 -51 0 -3 -12 -17 -28 -31
-33 -28 -36 -53 -18 -153 6 -33 14 -78 17 -100 3 -23 7 -52 10 -65 3 -13 7
-42 10 -65 3 -22 10 -62 15 -90 5 -27 12 -64 15 -81 29 -180 179 -348 372
-415 65 -23 212 -32 287 -18 26 5 68 11 94 14 26 4 54 8 62 10 8 3 33 7 55 10
22 4 51 8 65 11 100 17 201 34 233 38 20 3 54 9 75 12 20 3 44 7 52 9 8 2 35
7 60 10 25 3 59 9 75 11 17 3 41 7 55 9 14 2 39 6 55 9 49 8 85 14 190 31 197
30 266 55 366 131 162 124 240 330 205 545 -3 19 -14 88 -25 154 -11 66 -22
134 -24 150 -7 43 -36 224 -44 265 -3 19 -7 42 -8 50 -3 21 -26 167 -30 193
-15 82 -55 330 -60 367 -30 208 -187 390 -392 456 -41 13 -215 28 -225 19z"/>
<path d="M3185 2465 c-5 -1 -39 -11 -75 -21 -167 -46 -310 -186 -367 -359 -25
-76 -26 -92 -28 -320 -3 -273 1 -307 45 -325 l30 -12 0 -98 c0 -95 -1 -98 -24
-104 -49 -12 -53 -43 -51 -349 2 -256 4 -288 23 -347 59 -181 183 -305 377
-376 47 -17 97 -19 740 -20 763 -2 763 -2 890 60 121 60 221 168 268 290 19
51 23 66 34 121 6 30 8 1268 2 1360 -11 180 -141 368 -309 448 -41 19 -97 40
-125 46 -44 9 -1401 15 -1430 6z"/>
</g>
</svg>
